<svg xmlns="http://www.w3.org/2000/svg" viewBox="0 0 1000 610" font-family="Segoe UI, Helvetica, Arial, sans-serif">
<defs><marker id="aR" viewBox="0 0 10 10" refX="9" refY="5" markerWidth="7" markerHeight="7" orient="auto-start-reverse"><path d="M0,0 L10,5 L0,10 z" fill="#DC2626"/></marker><marker id="aV" viewBox="0 0 10 10" refX="9" refY="5" markerWidth="7" markerHeight="7" orient="auto-start-reverse"><path d="M0,0 L10,5 L0,10 z" fill="#7C3AED"/></marker><marker id="aS" viewBox="0 0 10 10" refX="9" refY="5" markerWidth="7" markerHeight="7" orient="auto-start-reverse"><path d="M0,0 L10,5 L0,10 z" fill="#64748B"/></marker><marker id="aG" viewBox="0 0 10 10" refX="9" refY="5" markerWidth="7" markerHeight="7" orient="auto-start-reverse"><path d="M0,0 L10,5 L0,10 z" fill="#059669"/></marker><marker id="aM" viewBox="0 0 10 10" refX="9" refY="5" markerWidth="7" markerHeight="7" orient="auto-start-reverse"><path d="M0,0 L10,5 L0,10 z" fill="#C026D3"/></marker><marker id="aA" viewBox="0 0 10 10" refX="9" refY="5" markerWidth="7" markerHeight="7" orient="auto-start-reverse"><path d="M0,0 L10,5 L0,10 z" fill="#D97706"/></marker><marker id="aB" viewBox="0 0 10 10" refX="9" refY="5" markerWidth="7" markerHeight="7" orient="auto-start-reverse"><path d="M0,0 L10,5 L0,10 z" fill="#2563EB"/></marker></defs>
<rect width="1000" height="610" fill="#F8FAFC"/>
<text x="30.0" y="42.0" font-size="26" fill="#1E293B" font-weight="700" text-anchor="start" font-family="Segoe UI, Helvetica, Arial, sans-serif">Tiling: how a 4 x 4 array multiplies a big matrix</text>
<text x="30.0" y="68.0" font-size="14" fill="#475569" font-weight="400" text-anchor="start" font-family="Segoe UI, Helvetica, Arial, sans-serif">Y (8 x 8) = X (8 x 12) · W (12 x 8). Cut W into 4 x 4 tiles. Each tile is one LDW; each K-tile adds into the</text>
<text x="30.0" y="88.0" font-size="14" fill="#475569" font-weight="400" text-anchor="start" font-family="Segoe UI, Helvetica, Arial, sans-serif">same accumulator rows (MMUL ... accumulate). 3 K-tiles x 2 column tiles = 6 weight loads.</text>
<rect x="40.0" y="220.0" width="23.0" height="23.0" rx="4" fill="#DBEAFE" stroke="#2563EB" stroke-width="1"/>
<rect x="66.0" y="220.0" width="23.0" height="23.0" rx="4" fill="#DBEAFE" stroke="#2563EB" stroke-width="1"/>
<rect x="92.0" y="220.0" width="23.0" height="23.0" rx="4" fill="#DBEAFE" stroke="#2563EB" stroke-width="1"/>
<rect x="118.0" y="220.0" width="23.0" height="23.0" rx="4" fill="#DBEAFE" stroke="#2563EB" stroke-width="1"/>
<rect x="144.0" y="220.0" width="23.0" height="23.0" rx="4" fill="#2563EB" stroke="#2563EB" stroke-width="1"/>
<rect x="170.0" y="220.0" width="23.0" height="23.0" rx="4" fill="#2563EB" stroke="#2563EB" stroke-width="1"/>
<rect x="196.0" y="220.0" width="23.0" height="23.0" rx="4" fill="#2563EB" stroke="#2563EB" stroke-width="1"/>
<rect x="222.0" y="220.0" width="23.0" height="23.0" rx="4" fill="#2563EB" stroke="#2563EB" stroke-width="1"/>
<rect x="248.0" y="220.0" width="23.0" height="23.0" rx="4" fill="#DBEAFE" stroke="#2563EB" stroke-width="1"/>
<rect x="274.0" y="220.0" width="23.0" height="23.0" rx="4" fill="#DBEAFE" stroke="#2563EB" stroke-width="1"/>
<rect x="300.0" y="220.0" width="23.0" height="23.0" rx="4" fill="#DBEAFE" stroke="#2563EB" stroke-width="1"/>
<rect x="326.0" y="220.0" width="23.0" height="23.0" rx="4" fill="#DBEAFE" stroke="#2563EB" stroke-width="1"/>
<rect x="40.0" y="246.0" width="23.0" height="23.0" rx="4" fill="#DBEAFE" stroke="#2563EB" stroke-width="1"/>
<rect x="66.0" y="246.0" width="23.0" height="23.0" rx="4" fill="#DBEAFE" stroke="#2563EB" stroke-width="1"/>
<rect x="92.0" y="246.0" width="23.0" height="23.0" rx="4" fill="#DBEAFE" stroke="#2563EB" stroke-width="1"/>
<rect x="118.0" y="246.0" width="23.0" height="23.0" rx="4" fill="#DBEAFE" stroke="#2563EB" stroke-width="1"/>
<rect x="144.0" y="246.0" width="23.0" height="23.0" rx="4" fill="#2563EB" stroke="#2563EB" stroke-width="1"/>
<rect x="170.0" y="246.0" width="23.0" height="23.0" rx="4" fill="#2563EB" stroke="#2563EB" stroke-width="1"/>
<rect x="196.0" y="246.0" width="23.0" height="23.0" rx="4" fill="#2563EB" stroke="#2563EB" stroke-width="1"/>
<rect x="222.0" y="246.0" width="23.0" height="23.0" rx="4" fill="#2563EB" stroke="#2563EB" stroke-width="1"/>
<rect x="248.0" y="246.0" width="23.0" height="23.0" rx="4" fill="#DBEAFE" stroke="#2563EB" stroke-width="1"/>
<rect x="274.0" y="246.0" width="23.0" height="23.0" rx="4" fill="#DBEAFE" stroke="#2563EB" stroke-width="1"/>
<rect x="300.0" y="246.0" width="23.0" height="23.0" rx="4" fill="#DBEAFE" stroke="#2563EB" stroke-width="1"/>
<rect x="326.0" y="246.0" width="23.0" height="23.0" rx="4" fill="#DBEAFE" stroke="#2563EB" stroke-width="1"/>
<rect x="40.0" y="272.0" width="23.0" height="23.0" rx="4" fill="#DBEAFE" stroke="#2563EB" stroke-width="1"/>
<rect x="66.0" y="272.0" width="23.0" height="23.0" rx="4" fill="#DBEAFE" stroke="#2563EB" stroke-width="1"/>
<rect x="92.0" y="272.0" width="23.0" height="23.0" rx="4" fill="#DBEAFE" stroke="#2563EB" stroke-width="1"/>
<rect x="118.0" y="272.0" width="23.0" height="23.0" rx="4" fill="#DBEAFE" stroke="#2563EB" stroke-width="1"/>
<rect x="144.0" y="272.0" width="23.0" height="23.0" rx="4" fill="#2563EB" stroke="#2563EB" stroke-width="1"/>
<rect x="170.0" y="272.0" width="23.0" height="23.0" rx="4" fill="#2563EB" stroke="#2563EB" stroke-width="1"/>
<rect x="196.0" y="272.0" width="23.0" height="23.0" rx="4" fill="#2563EB" stroke="#2563EB" stroke-width="1"/>
<rect x="222.0" y="272.0" width="23.0" height="23.0" rx="4" fill="#2563EB" stroke="#2563EB" stroke-width="1"/>
<rect x="248.0" y="272.0" width="23.0" height="23.0" rx="4" fill="#DBEAFE" stroke="#2563EB" stroke-width="1"/>
<rect x="274.0" y="272.0" width="23.0" height="23.0" rx="4" fill="#DBEAFE" stroke="#2563EB" stroke-width="1"/>
<rect x="300.0" y="272.0" width="23.0" height="23.0" rx="4" fill="#DBEAFE" stroke="#2563EB" stroke-width="1"/>
<rect x="326.0" y="272.0" width="23.0" height="23.0" rx="4" fill="#DBEAFE" stroke="#2563EB" stroke-width="1"/>
<rect x="40.0" y="298.0" width="23.0" height="23.0" rx="4" fill="#DBEAFE" stroke="#2563EB" stroke-width="1"/>
<rect x="66.0" y="298.0" width="23.0" height="23.0" rx="4" fill="#DBEAFE" stroke="#2563EB" stroke-width="1"/>
<rect x="92.0" y="298.0" width="23.0" height="23.0" rx="4" fill="#DBEAFE" stroke="#2563EB" stroke-width="1"/>
<rect x="118.0" y="298.0" width="23.0" height="23.0" rx="4" fill="#DBEAFE" stroke="#2563EB" stroke-width="1"/>
<rect x="144.0" y="298.0" width="23.0" height="23.0" rx="4" fill="#2563EB" stroke="#2563EB" stroke-width="1"/>
<rect x="170.0" y="298.0" width="23.0" height="23.0" rx="4" fill="#2563EB" stroke="#2563EB" stroke-width="1"/>
<rect x="196.0" y="298.0" width="23.0" height="23.0" rx="4" fill="#2563EB" stroke="#2563EB" stroke-width="1"/>
<rect x="222.0" y="298.0" width="23.0" height="23.0" rx="4" fill="#2563EB" stroke="#2563EB" stroke-width="1"/>
<rect x="248.0" y="298.0" width="23.0" height="23.0" rx="4" fill="#DBEAFE" stroke="#2563EB" stroke-width="1"/>
<rect x="274.0" y="298.0" width="23.0" height="23.0" rx="4" fill="#DBEAFE" stroke="#2563EB" stroke-width="1"/>
<rect x="300.0" y="298.0" width="23.0" height="23.0" rx="4" fill="#DBEAFE" stroke="#2563EB" stroke-width="1"/>
<rect x="326.0" y="298.0" width="23.0" height="23.0" rx="4" fill="#DBEAFE" stroke="#2563EB" stroke-width="1"/>
<rect x="40.0" y="324.0" width="23.0" height="23.0" rx="4" fill="#DBEAFE" stroke="#2563EB" stroke-width="1"/>
<rect x="66.0" y="324.0" width="23.0" height="23.0" rx="4" fill="#DBEAFE" stroke="#2563EB" stroke-width="1"/>
<rect x="92.0" y="324.0" width="23.0" height="23.0" rx="4" fill="#DBEAFE" stroke="#2563EB" stroke-width="1"/>
<rect x="118.0" y="324.0" width="23.0" height="23.0" rx="4" fill="#DBEAFE" stroke="#2563EB" stroke-width="1"/>
<rect x="144.0" y="324.0" width="23.0" height="23.0" rx="4" fill="#2563EB" stroke="#2563EB" stroke-width="1"/>
<rect x="170.0" y="324.0" width="23.0" height="23.0" rx="4" fill="#2563EB" stroke="#2563EB" stroke-width="1"/>
<rect x="196.0" y="324.0" width="23.0" height="23.0" rx="4" fill="#2563EB" stroke="#2563EB" stroke-width="1"/>
<rect x="222.0" y="324.0" width="23.0" height="23.0" rx="4" fill="#2563EB" stroke="#2563EB" stroke-width="1"/>
<rect x="248.0" y="324.0" width="23.0" height="23.0" rx="4" fill="#DBEAFE" stroke="#2563EB" stroke-width="1"/>
<rect x="274.0" y="324.0" width="23.0" height="23.0" rx="4" fill="#DBEAFE" stroke="#2563EB" stroke-width="1"/>
<rect x="300.0" y="324.0" width="23.0" height="23.0" rx="4" fill="#DBEAFE" stroke="#2563EB" stroke-width="1"/>
<rect x="326.0" y="324.0" width="23.0" height="23.0" rx="4" fill="#DBEAFE" stroke="#2563EB" stroke-width="1"/>
<rect x="40.0" y="350.0" width="23.0" height="23.0" rx="4" fill="#DBEAFE" stroke="#2563EB" stroke-width="1"/>
<rect x="66.0" y="350.0" width="23.0" height="23.0" rx="4" fill="#DBEAFE" stroke="#2563EB" stroke-width="1"/>
<rect x="92.0" y="350.0" width="23.0" height="23.0" rx="4" fill="#DBEAFE" stroke="#2563EB" stroke-width="1"/>
<rect x="118.0" y="350.0" width="23.0" height="23.0" rx="4" fill="#DBEAFE" stroke="#2563EB" stroke-width="1"/>
<rect x="144.0" y="350.0" width="23.0" height="23.0" rx="4" fill="#2563EB" stroke="#2563EB" stroke-width="1"/>
<rect x="170.0" y="350.0" width="23.0" height="23.0" rx="4" fill="#2563EB" stroke="#2563EB" stroke-width="1"/>
<rect x="196.0" y="350.0" width="23.0" height="23.0" rx="4" fill="#2563EB" stroke="#2563EB" stroke-width="1"/>
<rect x="222.0" y="350.0" width="23.0" height="23.0" rx="4" fill="#2563EB" stroke="#2563EB" stroke-width="1"/>
<rect x="248.0" y="350.0" width="23.0" height="23.0" rx="4" fill="#DBEAFE" stroke="#2563EB" stroke-width="1"/>
<rect x="274.0" y="350.0" width="23.0" height="23.0" rx="4" fill="#DBEAFE" stroke="#2563EB" stroke-width="1"/>
<rect x="300.0" y="350.0" width="23.0" height="23.0" rx="4" fill="#DBEAFE" stroke="#2563EB" stroke-width="1"/>
<rect x="326.0" y="350.0" width="23.0" height="23.0" rx="4" fill="#DBEAFE" stroke="#2563EB" stroke-width="1"/>
<rect x="40.0" y="376.0" width="23.0" height="23.0" rx="4" fill="#DBEAFE" stroke="#2563EB" stroke-width="1"/>
<rect x="66.0" y="376.0" width="23.0" height="23.0" rx="4" fill="#DBEAFE" stroke="#2563EB" stroke-width="1"/>
<rect x="92.0" y="376.0" width="23.0" height="23.0" rx="4" fill="#DBEAFE" stroke="#2563EB" stroke-width="1"/>
<rect x="118.0" y="376.0" width="23.0" height="23.0" rx="4" fill="#DBEAFE" stroke="#2563EB" stroke-width="1"/>
<rect x="144.0" y="376.0" width="23.0" height="23.0" rx="4" fill="#2563EB" stroke="#2563EB" stroke-width="1"/>
<rect x="170.0" y="376.0" width="23.0" height="23.0" rx="4" fill="#2563EB" stroke="#2563EB" stroke-width="1"/>
<rect x="196.0" y="376.0" width="23.0" height="23.0" rx="4" fill="#2563EB" stroke="#2563EB" stroke-width="1"/>
<rect x="222.0" y="376.0" width="23.0" height="23.0" rx="4" fill="#2563EB" stroke="#2563EB" stroke-width="1"/>
<rect x="248.0" y="376.0" width="23.0" height="23.0" rx="4" fill="#DBEAFE" stroke="#2563EB" stroke-width="1"/>
<rect x="274.0" y="376.0" width="23.0" height="23.0" rx="4" fill="#DBEAFE" stroke="#2563EB" stroke-width="1"/>
<rect x="300.0" y="376.0" width="23.0" height="23.0" rx="4" fill="#DBEAFE" stroke="#2563EB" stroke-width="1"/>
<rect x="326.0" y="376.0" width="23.0" height="23.0" rx="4" fill="#DBEAFE" stroke="#2563EB" stroke-width="1"/>
<rect x="40.0" y="402.0" width="23.0" height="23.0" rx="4" fill="#DBEAFE" stroke="#2563EB" stroke-width="1"/>
<rect x="66.0" y="402.0" width="23.0" height="23.0" rx="4" fill="#DBEAFE" stroke="#2563EB" stroke-width="1"/>
<rect x="92.0" y="402.0" width="23.0" height="23.0" rx="4" fill="#DBEAFE" stroke="#2563EB" stroke-width="1"/>
<rect x="118.0" y="402.0" width="23.0" height="23.0" rx="4" fill="#DBEAFE" stroke="#2563EB" stroke-width="1"/>
<rect x="144.0" y="402.0" width="23.0" height="23.0" rx="4" fill="#2563EB" stroke="#2563EB" stroke-width="1"/>
<rect x="170.0" y="402.0" width="23.0" height="23.0" rx="4" fill="#2563EB" stroke="#2563EB" stroke-width="1"/>
<rect x="196.0" y="402.0" width="23.0" height="23.0" rx="4" fill="#2563EB" stroke="#2563EB" stroke-width="1"/>
<rect x="222.0" y="402.0" width="23.0" height="23.0" rx="4" fill="#2563EB" stroke="#2563EB" stroke-width="1"/>
<rect x="248.0" y="402.0" width="23.0" height="23.0" rx="4" fill="#DBEAFE" stroke="#2563EB" stroke-width="1"/>
<rect x="274.0" y="402.0" width="23.0" height="23.0" rx="4" fill="#DBEAFE" stroke="#2563EB" stroke-width="1"/>
<rect x="300.0" y="402.0" width="23.0" height="23.0" rx="4" fill="#DBEAFE" stroke="#2563EB" stroke-width="1"/>
<rect x="326.0" y="402.0" width="23.0" height="23.0" rx="4" fill="#DBEAFE" stroke="#2563EB" stroke-width="1"/>
<text x="196.0" y="208.0" font-size="15" fill="#1E293B" font-weight="700" text-anchor="middle" font-family="Segoe UI, Helvetica, Arial, sans-serif">X  (8 x 12)</text>
<text x="196.0" y="450.0" font-size="12" fill="#2563EB" font-weight="600" text-anchor="middle" font-family="Segoe UI, Helvetica, Arial, sans-serif">highlighted: K-tile 1 (columns 4-7)</text>
<text x="380.0" y="324.0" font-size="34" fill="#1E293B" font-weight="700" text-anchor="middle" font-family="Segoe UI, Helvetica, Arial, sans-serif">·</text>
<rect x="410.0" y="168.0" width="23.0" height="23.0" rx="4" fill="#FEF3C7" stroke="#D97706" stroke-width="1"/>
<rect x="436.0" y="168.0" width="23.0" height="23.0" rx="4" fill="#FEF3C7" stroke="#D97706" stroke-width="1"/>
<rect x="462.0" y="168.0" width="23.0" height="23.0" rx="4" fill="#FEF3C7" stroke="#D97706" stroke-width="1"/>
<rect x="488.0" y="168.0" width="23.0" height="23.0" rx="4" fill="#FEF3C7" stroke="#D97706" stroke-width="1"/>
<rect x="410.0" y="194.0" width="23.0" height="23.0" rx="4" fill="#FEF3C7" stroke="#D97706" stroke-width="1"/>
<rect x="436.0" y="194.0" width="23.0" height="23.0" rx="4" fill="#FEF3C7" stroke="#D97706" stroke-width="1"/>
<rect x="462.0" y="194.0" width="23.0" height="23.0" rx="4" fill="#FEF3C7" stroke="#D97706" stroke-width="1"/>
<rect x="488.0" y="194.0" width="23.0" height="23.0" rx="4" fill="#FEF3C7" stroke="#D97706" stroke-width="1"/>
<rect x="410.0" y="220.0" width="23.0" height="23.0" rx="4" fill="#FEF3C7" stroke="#D97706" stroke-width="1"/>
<rect x="436.0" y="220.0" width="23.0" height="23.0" rx="4" fill="#FEF3C7" stroke="#D97706" stroke-width="1"/>
<rect x="462.0" y="220.0" width="23.0" height="23.0" rx="4" fill="#FEF3C7" stroke="#D97706" stroke-width="1"/>
<rect x="488.0" y="220.0" width="23.0" height="23.0" rx="4" fill="#FEF3C7" stroke="#D97706" stroke-width="1"/>
<rect x="410.0" y="246.0" width="23.0" height="23.0" rx="4" fill="#FEF3C7" stroke="#D97706" stroke-width="1"/>
<rect x="436.0" y="246.0" width="23.0" height="23.0" rx="4" fill="#FEF3C7" stroke="#D97706" stroke-width="1"/>
<rect x="462.0" y="246.0" width="23.0" height="23.0" rx="4" fill="#FEF3C7" stroke="#D97706" stroke-width="1"/>
<rect x="488.0" y="246.0" width="23.0" height="23.0" rx="4" fill="#FEF3C7" stroke="#D97706" stroke-width="1"/>
<text x="460.0" y="222.0" font-size="12" fill="#92400E" font-weight="700" text-anchor="middle" font-family="Segoe UI, Helvetica, Arial, sans-serif">W00</text>
<rect x="514.0" y="168.0" width="23.0" height="23.0" rx="4" fill="#FEF3C7" stroke="#D97706" stroke-width="1"/>
<rect x="540.0" y="168.0" width="23.0" height="23.0" rx="4" fill="#FEF3C7" stroke="#D97706" stroke-width="1"/>
<rect x="566.0" y="168.0" width="23.0" height="23.0" rx="4" fill="#FEF3C7" stroke="#D97706" stroke-width="1"/>
<rect x="592.0" y="168.0" width="23.0" height="23.0" rx="4" fill="#FEF3C7" stroke="#D97706" stroke-width="1"/>
<rect x="514.0" y="194.0" width="23.0" height="23.0" rx="4" fill="#FEF3C7" stroke="#D97706" stroke-width="1"/>
<rect x="540.0" y="194.0" width="23.0" height="23.0" rx="4" fill="#FEF3C7" stroke="#D97706" stroke-width="1"/>
<rect x="566.0" y="194.0" width="23.0" height="23.0" rx="4" fill="#FEF3C7" stroke="#D97706" stroke-width="1"/>
<rect x="592.0" y="194.0" width="23.0" height="23.0" rx="4" fill="#FEF3C7" stroke="#D97706" stroke-width="1"/>
<rect x="514.0" y="220.0" width="23.0" height="23.0" rx="4" fill="#FEF3C7" stroke="#D97706" stroke-width="1"/>
<rect x="540.0" y="220.0" width="23.0" height="23.0" rx="4" fill="#FEF3C7" stroke="#D97706" stroke-width="1"/>
<rect x="566.0" y="220.0" width="23.0" height="23.0" rx="4" fill="#FEF3C7" stroke="#D97706" stroke-width="1"/>
<rect x="592.0" y="220.0" width="23.0" height="23.0" rx="4" fill="#FEF3C7" stroke="#D97706" stroke-width="1"/>
<rect x="514.0" y="246.0" width="23.0" height="23.0" rx="4" fill="#FEF3C7" stroke="#D97706" stroke-width="1"/>
<rect x="540.0" y="246.0" width="23.0" height="23.0" rx="4" fill="#FEF3C7" stroke="#D97706" stroke-width="1"/>
<rect x="566.0" y="246.0" width="23.0" height="23.0" rx="4" fill="#FEF3C7" stroke="#D97706" stroke-width="1"/>
<rect x="592.0" y="246.0" width="23.0" height="23.0" rx="4" fill="#FEF3C7" stroke="#D97706" stroke-width="1"/>
<text x="564.0" y="222.0" font-size="12" fill="#92400E" font-weight="700" text-anchor="middle" font-family="Segoe UI, Helvetica, Arial, sans-serif">W01</text>
<rect x="410.0" y="272.0" width="23.0" height="23.0" rx="4" fill="#D97706" stroke="#D97706" stroke-width="1"/>
<rect x="436.0" y="272.0" width="23.0" height="23.0" rx="4" fill="#D97706" stroke="#D97706" stroke-width="1"/>
<rect x="462.0" y="272.0" width="23.0" height="23.0" rx="4" fill="#D97706" stroke="#D97706" stroke-width="1"/>
<rect x="488.0" y="272.0" width="23.0" height="23.0" rx="4" fill="#D97706" stroke="#D97706" stroke-width="1"/>
<rect x="410.0" y="298.0" width="23.0" height="23.0" rx="4" fill="#D97706" stroke="#D97706" stroke-width="1"/>
<rect x="436.0" y="298.0" width="23.0" height="23.0" rx="4" fill="#D97706" stroke="#D97706" stroke-width="1"/>
<rect x="462.0" y="298.0" width="23.0" height="23.0" rx="4" fill="#D97706" stroke="#D97706" stroke-width="1"/>
<rect x="488.0" y="298.0" width="23.0" height="23.0" rx="4" fill="#D97706" stroke="#D97706" stroke-width="1"/>
<rect x="410.0" y="324.0" width="23.0" height="23.0" rx="4" fill="#D97706" stroke="#D97706" stroke-width="1"/>
<rect x="436.0" y="324.0" width="23.0" height="23.0" rx="4" fill="#D97706" stroke="#D97706" stroke-width="1"/>
<rect x="462.0" y="324.0" width="23.0" height="23.0" rx="4" fill="#D97706" stroke="#D97706" stroke-width="1"/>
<rect x="488.0" y="324.0" width="23.0" height="23.0" rx="4" fill="#D97706" stroke="#D97706" stroke-width="1"/>
<rect x="410.0" y="350.0" width="23.0" height="23.0" rx="4" fill="#D97706" stroke="#D97706" stroke-width="1"/>
<rect x="436.0" y="350.0" width="23.0" height="23.0" rx="4" fill="#D97706" stroke="#D97706" stroke-width="1"/>
<rect x="462.0" y="350.0" width="23.0" height="23.0" rx="4" fill="#D97706" stroke="#D97706" stroke-width="1"/>
<rect x="488.0" y="350.0" width="23.0" height="23.0" rx="4" fill="#D97706" stroke="#D97706" stroke-width="1"/>
<text x="460.0" y="326.0" font-size="12" fill="#FFFFFF" font-weight="700" text-anchor="middle" font-family="Segoe UI, Helvetica, Arial, sans-serif">W10</text>
<rect x="514.0" y="272.0" width="23.0" height="23.0" rx="4" fill="#FEF3C7" stroke="#D97706" stroke-width="1"/>
<rect x="540.0" y="272.0" width="23.0" height="23.0" rx="4" fill="#FEF3C7" stroke="#D97706" stroke-width="1"/>
<rect x="566.0" y="272.0" width="23.0" height="23.0" rx="4" fill="#FEF3C7" stroke="#D97706" stroke-width="1"/>
<rect x="592.0" y="272.0" width="23.0" height="23.0" rx="4" fill="#FEF3C7" stroke="#D97706" stroke-width="1"/>
<rect x="514.0" y="298.0" width="23.0" height="23.0" rx="4" fill="#FEF3C7" stroke="#D97706" stroke-width="1"/>
<rect x="540.0" y="298.0" width="23.0" height="23.0" rx="4" fill="#FEF3C7" stroke="#D97706" stroke-width="1"/>
<rect x="566.0" y="298.0" width="23.0" height="23.0" rx="4" fill="#FEF3C7" stroke="#D97706" stroke-width="1"/>
<rect x="592.0" y="298.0" width="23.0" height="23.0" rx="4" fill="#FEF3C7" stroke="#D97706" stroke-width="1"/>
<rect x="514.0" y="324.0" width="23.0" height="23.0" rx="4" fill="#FEF3C7" stroke="#D97706" stroke-width="1"/>
<rect x="540.0" y="324.0" width="23.0" height="23.0" rx="4" fill="#FEF3C7" stroke="#D97706" stroke-width="1"/>
<rect x="566.0" y="324.0" width="23.0" height="23.0" rx="4" fill="#FEF3C7" stroke="#D97706" stroke-width="1"/>
<rect x="592.0" y="324.0" width="23.0" height="23.0" rx="4" fill="#FEF3C7" stroke="#D97706" stroke-width="1"/>
<rect x="514.0" y="350.0" width="23.0" height="23.0" rx="4" fill="#FEF3C7" stroke="#D97706" stroke-width="1"/>
<rect x="540.0" y="350.0" width="23.0" height="23.0" rx="4" fill="#FEF3C7" stroke="#D97706" stroke-width="1"/>
<rect x="566.0" y="350.0" width="23.0" height="23.0" rx="4" fill="#FEF3C7" stroke="#D97706" stroke-width="1"/>
<rect x="592.0" y="350.0" width="23.0" height="23.0" rx="4" fill="#FEF3C7" stroke="#D97706" stroke-width="1"/>
<text x="564.0" y="326.0" font-size="12" fill="#92400E" font-weight="700" text-anchor="middle" font-family="Segoe UI, Helvetica, Arial, sans-serif">W11</text>
<rect x="410.0" y="376.0" width="23.0" height="23.0" rx="4" fill="#FEF3C7" stroke="#D97706" stroke-width="1"/>
<rect x="436.0" y="376.0" width="23.0" height="23.0" rx="4" fill="#FEF3C7" stroke="#D97706" stroke-width="1"/>
<rect x="462.0" y="376.0" width="23.0" height="23.0" rx="4" fill="#FEF3C7" stroke="#D97706" stroke-width="1"/>
<rect x="488.0" y="376.0" width="23.0" height="23.0" rx="4" fill="#FEF3C7" stroke="#D97706" stroke-width="1"/>
<rect x="410.0" y="402.0" width="23.0" height="23.0" rx="4" fill="#FEF3C7" stroke="#D97706" stroke-width="1"/>
<rect x="436.0" y="402.0" width="23.0" height="23.0" rx="4" fill="#FEF3C7" stroke="#D97706" stroke-width="1"/>
<rect x="462.0" y="402.0" width="23.0" height="23.0" rx="4" fill="#FEF3C7" stroke="#D97706" stroke-width="1"/>
<rect x="488.0" y="402.0" width="23.0" height="23.0" rx="4" fill="#FEF3C7" stroke="#D97706" stroke-width="1"/>
<rect x="410.0" y="428.0" width="23.0" height="23.0" rx="4" fill="#FEF3C7" stroke="#D97706" stroke-width="1"/>
<rect x="436.0" y="428.0" width="23.0" height="23.0" rx="4" fill="#FEF3C7" stroke="#D97706" stroke-width="1"/>
<rect x="462.0" y="428.0" width="23.0" height="23.0" rx="4" fill="#FEF3C7" stroke="#D97706" stroke-width="1"/>
<rect x="488.0" y="428.0" width="23.0" height="23.0" rx="4" fill="#FEF3C7" stroke="#D97706" stroke-width="1"/>
<rect x="410.0" y="454.0" width="23.0" height="23.0" rx="4" fill="#FEF3C7" stroke="#D97706" stroke-width="1"/>
<rect x="436.0" y="454.0" width="23.0" height="23.0" rx="4" fill="#FEF3C7" stroke="#D97706" stroke-width="1"/>
<rect x="462.0" y="454.0" width="23.0" height="23.0" rx="4" fill="#FEF3C7" stroke="#D97706" stroke-width="1"/>
<rect x="488.0" y="454.0" width="23.0" height="23.0" rx="4" fill="#FEF3C7" stroke="#D97706" stroke-width="1"/>
<text x="460.0" y="430.0" font-size="12" fill="#92400E" font-weight="700" text-anchor="middle" font-family="Segoe UI, Helvetica, Arial, sans-serif">W20</text>
<rect x="514.0" y="376.0" width="23.0" height="23.0" rx="4" fill="#FEF3C7" stroke="#D97706" stroke-width="1"/>
<rect x="540.0" y="376.0" width="23.0" height="23.0" rx="4" fill="#FEF3C7" stroke="#D97706" stroke-width="1"/>
<rect x="566.0" y="376.0" width="23.0" height="23.0" rx="4" fill="#FEF3C7" stroke="#D97706" stroke-width="1"/>
<rect x="592.0" y="376.0" width="23.0" height="23.0" rx="4" fill="#FEF3C7" stroke="#D97706" stroke-width="1"/>
<rect x="514.0" y="402.0" width="23.0" height="23.0" rx="4" fill="#FEF3C7" stroke="#D97706" stroke-width="1"/>
<rect x="540.0" y="402.0" width="23.0" height="23.0" rx="4" fill="#FEF3C7" stroke="#D97706" stroke-width="1"/>
<rect x="566.0" y="402.0" width="23.0" height="23.0" rx="4" fill="#FEF3C7" stroke="#D97706" stroke-width="1"/>
<rect x="592.0" y="402.0" width="23.0" height="23.0" rx="4" fill="#FEF3C7" stroke="#D97706" stroke-width="1"/>
<rect x="514.0" y="428.0" width="23.0" height="23.0" rx="4" fill="#FEF3C7" stroke="#D97706" stroke-width="1"/>
<rect x="540.0" y="428.0" width="23.0" height="23.0" rx="4" fill="#FEF3C7" stroke="#D97706" stroke-width="1"/>
<rect x="566.0" y="428.0" width="23.0" height="23.0" rx="4" fill="#FEF3C7" stroke="#D97706" stroke-width="1"/>
<rect x="592.0" y="428.0" width="23.0" height="23.0" rx="4" fill="#FEF3C7" stroke="#D97706" stroke-width="1"/>
<rect x="514.0" y="454.0" width="23.0" height="23.0" rx="4" fill="#FEF3C7" stroke="#D97706" stroke-width="1"/>
<rect x="540.0" y="454.0" width="23.0" height="23.0" rx="4" fill="#FEF3C7" stroke="#D97706" stroke-width="1"/>
<rect x="566.0" y="454.0" width="23.0" height="23.0" rx="4" fill="#FEF3C7" stroke="#D97706" stroke-width="1"/>
<rect x="592.0" y="454.0" width="23.0" height="23.0" rx="4" fill="#FEF3C7" stroke="#D97706" stroke-width="1"/>
<text x="564.0" y="430.0" font-size="12" fill="#92400E" font-weight="700" text-anchor="middle" font-family="Segoe UI, Helvetica, Arial, sans-serif">W21</text>
<text x="514.0" y="156.0" font-size="15" fill="#1E293B" font-weight="700" text-anchor="middle" font-family="Segoe UI, Helvetica, Arial, sans-serif">W  (12 x 8) = 3 x 2 tiles of 4 x 4</text>
<text x="648.0" y="324.0" font-size="30" fill="#1E293B" font-weight="700" text-anchor="middle" font-family="Segoe UI, Helvetica, Arial, sans-serif">=</text>
<rect x="680.0" y="220.0" width="23.0" height="23.0" rx="4" fill="#C026D3" stroke="#C026D3" stroke-width="1"/>
<rect x="706.0" y="220.0" width="23.0" height="23.0" rx="4" fill="#C026D3" stroke="#C026D3" stroke-width="1"/>
<rect x="732.0" y="220.0" width="23.0" height="23.0" rx="4" fill="#C026D3" stroke="#C026D3" stroke-width="1"/>
<rect x="758.0" y="220.0" width="23.0" height="23.0" rx="4" fill="#C026D3" stroke="#C026D3" stroke-width="1"/>
<rect x="784.0" y="220.0" width="23.0" height="23.0" rx="4" fill="#FAE8FF" stroke="#C026D3" stroke-width="1"/>
<rect x="810.0" y="220.0" width="23.0" height="23.0" rx="4" fill="#FAE8FF" stroke="#C026D3" stroke-width="1"/>
<rect x="836.0" y="220.0" width="23.0" height="23.0" rx="4" fill="#FAE8FF" stroke="#C026D3" stroke-width="1"/>
<rect x="862.0" y="220.0" width="23.0" height="23.0" rx="4" fill="#FAE8FF" stroke="#C026D3" stroke-width="1"/>
<rect x="680.0" y="246.0" width="23.0" height="23.0" rx="4" fill="#C026D3" stroke="#C026D3" stroke-width="1"/>
<rect x="706.0" y="246.0" width="23.0" height="23.0" rx="4" fill="#C026D3" stroke="#C026D3" stroke-width="1"/>
<rect x="732.0" y="246.0" width="23.0" height="23.0" rx="4" fill="#C026D3" stroke="#C026D3" stroke-width="1"/>
<rect x="758.0" y="246.0" width="23.0" height="23.0" rx="4" fill="#C026D3" stroke="#C026D3" stroke-width="1"/>
<rect x="784.0" y="246.0" width="23.0" height="23.0" rx="4" fill="#FAE8FF" stroke="#C026D3" stroke-width="1"/>
<rect x="810.0" y="246.0" width="23.0" height="23.0" rx="4" fill="#FAE8FF" stroke="#C026D3" stroke-width="1"/>
<rect x="836.0" y="246.0" width="23.0" height="23.0" rx="4" fill="#FAE8FF" stroke="#C026D3" stroke-width="1"/>
<rect x="862.0" y="246.0" width="23.0" height="23.0" rx="4" fill="#FAE8FF" stroke="#C026D3" stroke-width="1"/>
<rect x="680.0" y="272.0" width="23.0" height="23.0" rx="4" fill="#C026D3" stroke="#C026D3" stroke-width="1"/>
<rect x="706.0" y="272.0" width="23.0" height="23.0" rx="4" fill="#C026D3" stroke="#C026D3" stroke-width="1"/>
<rect x="732.0" y="272.0" width="23.0" height="23.0" rx="4" fill="#C026D3" stroke="#C026D3" stroke-width="1"/>
<rect x="758.0" y="272.0" width="23.0" height="23.0" rx="4" fill="#C026D3" stroke="#C026D3" stroke-width="1"/>
<rect x="784.0" y="272.0" width="23.0" height="23.0" rx="4" fill="#FAE8FF" stroke="#C026D3" stroke-width="1"/>
<rect x="810.0" y="272.0" width="23.0" height="23.0" rx="4" fill="#FAE8FF" stroke="#C026D3" stroke-width="1"/>
<rect x="836.0" y="272.0" width="23.0" height="23.0" rx="4" fill="#FAE8FF" stroke="#C026D3" stroke-width="1"/>
<rect x="862.0" y="272.0" width="23.0" height="23.0" rx="4" fill="#FAE8FF" stroke="#C026D3" stroke-width="1"/>
<rect x="680.0" y="298.0" width="23.0" height="23.0" rx="4" fill="#C026D3" stroke="#C026D3" stroke-width="1"/>
<rect x="706.0" y="298.0" width="23.0" height="23.0" rx="4" fill="#C026D3" stroke="#C026D3" stroke-width="1"/>
<rect x="732.0" y="298.0" width="23.0" height="23.0" rx="4" fill="#C026D3" stroke="#C026D3" stroke-width="1"/>
<rect x="758.0" y="298.0" width="23.0" height="23.0" rx="4" fill="#C026D3" stroke="#C026D3" stroke-width="1"/>
<rect x="784.0" y="298.0" width="23.0" height="23.0" rx="4" fill="#FAE8FF" stroke="#C026D3" stroke-width="1"/>
<rect x="810.0" y="298.0" width="23.0" height="23.0" rx="4" fill="#FAE8FF" stroke="#C026D3" stroke-width="1"/>
<rect x="836.0" y="298.0" width="23.0" height="23.0" rx="4" fill="#FAE8FF" stroke="#C026D3" stroke-width="1"/>
<rect x="862.0" y="298.0" width="23.0" height="23.0" rx="4" fill="#FAE8FF" stroke="#C026D3" stroke-width="1"/>
<rect x="680.0" y="324.0" width="23.0" height="23.0" rx="4" fill="#C026D3" stroke="#C026D3" stroke-width="1"/>
<rect x="706.0" y="324.0" width="23.0" height="23.0" rx="4" fill="#C026D3" stroke="#C026D3" stroke-width="1"/>
<rect x="732.0" y="324.0" width="23.0" height="23.0" rx="4" fill="#C026D3" stroke="#C026D3" stroke-width="1"/>
<rect x="758.0" y="324.0" width="23.0" height="23.0" rx="4" fill="#C026D3" stroke="#C026D3" stroke-width="1"/>
<rect x="784.0" y="324.0" width="23.0" height="23.0" rx="4" fill="#FAE8FF" stroke="#C026D3" stroke-width="1"/>
<rect x="810.0" y="324.0" width="23.0" height="23.0" rx="4" fill="#FAE8FF" stroke="#C026D3" stroke-width="1"/>
<rect x="836.0" y="324.0" width="23.0" height="23.0" rx="4" fill="#FAE8FF" stroke="#C026D3" stroke-width="1"/>
<rect x="862.0" y="324.0" width="23.0" height="23.0" rx="4" fill="#FAE8FF" stroke="#C026D3" stroke-width="1"/>
<rect x="680.0" y="350.0" width="23.0" height="23.0" rx="4" fill="#C026D3" stroke="#C026D3" stroke-width="1"/>
<rect x="706.0" y="350.0" width="23.0" height="23.0" rx="4" fill="#C026D3" stroke="#C026D3" stroke-width="1"/>
<rect x="732.0" y="350.0" width="23.0" height="23.0" rx="4" fill="#C026D3" stroke="#C026D3" stroke-width="1"/>
<rect x="758.0" y="350.0" width="23.0" height="23.0" rx="4" fill="#C026D3" stroke="#C026D3" stroke-width="1"/>
<rect x="784.0" y="350.0" width="23.0" height="23.0" rx="4" fill="#FAE8FF" stroke="#C026D3" stroke-width="1"/>
<rect x="810.0" y="350.0" width="23.0" height="23.0" rx="4" fill="#FAE8FF" stroke="#C026D3" stroke-width="1"/>
<rect x="836.0" y="350.0" width="23.0" height="23.0" rx="4" fill="#FAE8FF" stroke="#C026D3" stroke-width="1"/>
<rect x="862.0" y="350.0" width="23.0" height="23.0" rx="4" fill="#FAE8FF" stroke="#C026D3" stroke-width="1"/>
<rect x="680.0" y="376.0" width="23.0" height="23.0" rx="4" fill="#C026D3" stroke="#C026D3" stroke-width="1"/>
<rect x="706.0" y="376.0" width="23.0" height="23.0" rx="4" fill="#C026D3" stroke="#C026D3" stroke-width="1"/>
<rect x="732.0" y="376.0" width="23.0" height="23.0" rx="4" fill="#C026D3" stroke="#C026D3" stroke-width="1"/>
<rect x="758.0" y="376.0" width="23.0" height="23.0" rx="4" fill="#C026D3" stroke="#C026D3" stroke-width="1"/>
<rect x="784.0" y="376.0" width="23.0" height="23.0" rx="4" fill="#FAE8FF" stroke="#C026D3" stroke-width="1"/>
<rect x="810.0" y="376.0" width="23.0" height="23.0" rx="4" fill="#FAE8FF" stroke="#C026D3" stroke-width="1"/>
<rect x="836.0" y="376.0" width="23.0" height="23.0" rx="4" fill="#FAE8FF" stroke="#C026D3" stroke-width="1"/>
<rect x="862.0" y="376.0" width="23.0" height="23.0" rx="4" fill="#FAE8FF" stroke="#C026D3" stroke-width="1"/>
<rect x="680.0" y="402.0" width="23.0" height="23.0" rx="4" fill="#C026D3" stroke="#C026D3" stroke-width="1"/>
<rect x="706.0" y="402.0" width="23.0" height="23.0" rx="4" fill="#C026D3" stroke="#C026D3" stroke-width="1"/>
<rect x="732.0" y="402.0" width="23.0" height="23.0" rx="4" fill="#C026D3" stroke="#C026D3" stroke-width="1"/>
<rect x="758.0" y="402.0" width="23.0" height="23.0" rx="4" fill="#C026D3" stroke="#C026D3" stroke-width="1"/>
<rect x="784.0" y="402.0" width="23.0" height="23.0" rx="4" fill="#FAE8FF" stroke="#C026D3" stroke-width="1"/>
<rect x="810.0" y="402.0" width="23.0" height="23.0" rx="4" fill="#FAE8FF" stroke="#C026D3" stroke-width="1"/>
<rect x="836.0" y="402.0" width="23.0" height="23.0" rx="4" fill="#FAE8FF" stroke="#C026D3" stroke-width="1"/>
<rect x="862.0" y="402.0" width="23.0" height="23.0" rx="4" fill="#FAE8FF" stroke="#C026D3" stroke-width="1"/>
<text x="784.0" y="208.0" font-size="15" fill="#1E293B" font-weight="700" text-anchor="middle" font-family="Segoe UI, Helvetica, Arial, sans-serif">Y  (8 x 8)</text>
<text x="784.0" y="450.0" font-size="12" fill="#C026D3" font-weight="600" text-anchor="middle" font-family="Segoe UI, Helvetica, Arial, sans-serif">highlighted: column tile 0 (acc rows)</text>
<rect x="40.0" y="490.0" width="920.0" height="100.0" rx="10" fill="#FFFFFF" stroke="#CBD5E1" stroke-width="1"/>
<text x="60.0" y="516.0" font-size="13" fill="#475569" font-weight="600" text-anchor="start" font-family="Segoe UI, Helvetica, Arial, sans-serif">Program for column tile 0 (repeat with W01, W11, W21 for column tile 1):</text>
<text x="60.0" y="540.0" font-size="13" fill="#4C1D95" font-weight="600" text-anchor="start" font-family="Consolas, Menlo, monospace">LDW w=W00;  MMUL ub=X_k0 rows=8 acc=0</text>
<text x="60.0" y="560.0" font-size="13" fill="#4C1D95" font-weight="600" text-anchor="start" font-family="Consolas, Menlo, monospace">LDW w=W10;  MMUL ub=X_k1 rows=8 acc=0 accumulate      &lt;- the highlighted tile</text>
<text x="60.0" y="580.0" font-size="13" fill="#4C1D95" font-weight="600" text-anchor="start" font-family="Consolas, Menlo, monospace">LDW w=W20;  MMUL ub=X_k2 rows=8 acc=0 accumulate;  ACT acc=0 rows=8 ...</text>
</svg>
