<svg xmlns="http://www.w3.org/2000/svg" viewBox="0 0 1083 560" font-family="Segoe UI, Helvetica, Arial, sans-serif">
<defs><marker id="aR" viewBox="0 0 10 10" refX="9" refY="5" markerWidth="7" markerHeight="7" orient="auto-start-reverse"><path d="M0,0 L10,5 L0,10 z" fill="#DC2626"/></marker><marker id="aV" viewBox="0 0 10 10" refX="9" refY="5" markerWidth="7" markerHeight="7" orient="auto-start-reverse"><path d="M0,0 L10,5 L0,10 z" fill="#7C3AED"/></marker><marker id="aS" viewBox="0 0 10 10" refX="9" refY="5" markerWidth="7" markerHeight="7" orient="auto-start-reverse"><path d="M0,0 L10,5 L0,10 z" fill="#64748B"/></marker><marker id="aG" viewBox="0 0 10 10" refX="9" refY="5" markerWidth="7" markerHeight="7" orient="auto-start-reverse"><path d="M0,0 L10,5 L0,10 z" fill="#059669"/></marker><marker id="aM" viewBox="0 0 10 10" refX="9" refY="5" markerWidth="7" markerHeight="7" orient="auto-start-reverse"><path d="M0,0 L10,5 L0,10 z" fill="#C026D3"/></marker><marker id="aA" viewBox="0 0 10 10" refX="9" refY="5" markerWidth="7" markerHeight="7" orient="auto-start-reverse"><path d="M0,0 L10,5 L0,10 z" fill="#D97706"/></marker><marker id="aB" viewBox="0 0 10 10" refX="9" refY="5" markerWidth="7" markerHeight="7" orient="auto-start-reverse"><path d="M0,0 L10,5 L0,10 z" fill="#2563EB"/></marker></defs>
<rect width="1083" height="560" fill="#F8FAFC"/>
<text x="30.0" y="42.0" font-size="26" fill="#1E293B" font-weight="700" text-anchor="start" font-family="Segoe UI, Helvetica, Arial, sans-serif">v1 vs v2: the same program, overlapped</text>
<text x="30.0" y="68.0" font-size="14" fill="#475569" font-weight="400" text-anchor="start" font-family="Segoe UI, Helvetica, Arial, sans-serif">Both runs come straight from the Verilog (programs/mlp_demo.asm). Top bar: what the controller is doing.</text>
<text x="30.0" y="88.0" font-size="14" fill="#475569" font-weight="400" text-anchor="start" font-family="Segoe UI, Helvetica, Arial, sans-serif">Bottom bar: when results land in the accumulators. v2 keeps working while results are still in flight.</text>
<text x="136.0" y="192.0" font-size="15" fill="#1E293B" font-weight="700" text-anchor="end" font-family="Segoe UI, Helvetica, Arial, sans-serif">v1 simple</text>
<text x="136.0" y="212.0" font-size="13" fill="#475569" font-weight="700" text-anchor="end" font-family="Segoe UI, Helvetica, Arial, sans-serif">92 cycles</text>
<rect x="150.0" y="170.0" width="8.5" height="36.0" rx="3" fill="#E2E8F0" stroke="#64748B" stroke-width="1.2"/>
<rect x="159.5" y="170.0" width="8.5" height="36.0" rx="3" fill="#E2E8F0" stroke="#64748B" stroke-width="1.2"/>
<rect x="169.0" y="170.0" width="37.0" height="36.0" rx="3" fill="#FEF3C7" stroke="#D97706" stroke-width="1.2"/>
<text x="188.0" y="193.0" font-size="11" fill="#92400E" font-weight="700" text-anchor="middle" font-family="Segoe UI, Helvetica, Arial, sans-serif">LDW</text>
<rect x="207.0" y="170.0" width="8.5" height="36.0" rx="3" fill="#E2E8F0" stroke="#64748B" stroke-width="1.2"/>
<rect x="216.5" y="170.0" width="8.5" height="36.0" rx="3" fill="#E2E8F0" stroke="#64748B" stroke-width="1.2"/>
<rect x="226.0" y="170.0" width="141.5" height="36.0" rx="3" fill="#EDE9FE" stroke="#7C3AED" stroke-width="1.2"/>
<text x="297.2" y="193.0" font-size="11" fill="#4C1D95" font-weight="700" text-anchor="middle" font-family="Segoe UI, Helvetica, Arial, sans-serif">MMUL</text>
<rect x="368.5" y="170.0" width="8.5" height="36.0" rx="3" fill="#E2E8F0" stroke="#64748B" stroke-width="1.2"/>
<rect x="378.0" y="170.0" width="8.5" height="36.0" rx="3" fill="#E2E8F0" stroke="#64748B" stroke-width="1.2"/>
<rect x="387.5" y="170.0" width="37.0" height="36.0" rx="3" fill="#FEF3C7" stroke="#D97706" stroke-width="1.2"/>
<text x="406.5" y="193.0" font-size="11" fill="#92400E" font-weight="700" text-anchor="middle" font-family="Segoe UI, Helvetica, Arial, sans-serif">LDW</text>
<rect x="425.5" y="170.0" width="8.5" height="36.0" rx="3" fill="#E2E8F0" stroke="#64748B" stroke-width="1.2"/>
<rect x="435.0" y="170.0" width="8.5" height="36.0" rx="3" fill="#E2E8F0" stroke="#64748B" stroke-width="1.2"/>
<rect x="444.5" y="170.0" width="141.5" height="36.0" rx="3" fill="#EDE9FE" stroke="#7C3AED" stroke-width="1.2"/>
<text x="515.8" y="193.0" font-size="11" fill="#4C1D95" font-weight="700" text-anchor="middle" font-family="Segoe UI, Helvetica, Arial, sans-serif">MMUL</text>
<rect x="587.0" y="170.0" width="8.5" height="36.0" rx="3" fill="#E2E8F0" stroke="#64748B" stroke-width="1.2"/>
<rect x="596.5" y="170.0" width="8.5" height="36.0" rx="3" fill="#E2E8F0" stroke="#64748B" stroke-width="1.2"/>
<rect x="606.0" y="170.0" width="37.0" height="36.0" rx="3" fill="#FEF3C7" stroke="#D97706" stroke-width="1.2"/>
<text x="625.0" y="193.0" font-size="11" fill="#92400E" font-weight="700" text-anchor="middle" font-family="Segoe UI, Helvetica, Arial, sans-serif">LDW</text>
<rect x="644.0" y="170.0" width="8.5" height="36.0" rx="3" fill="#E2E8F0" stroke="#64748B" stroke-width="1.2"/>
<rect x="653.5" y="170.0" width="8.5" height="36.0" rx="3" fill="#E2E8F0" stroke="#64748B" stroke-width="1.2"/>
<rect x="663.0" y="170.0" width="75.0" height="36.0" rx="3" fill="#D1FAE5" stroke="#059669" stroke-width="1.2"/>
<text x="701.0" y="193.0" font-size="11" fill="#065F46" font-weight="700" text-anchor="middle" font-family="Segoe UI, Helvetica, Arial, sans-serif">ACT</text>
<rect x="739.0" y="170.0" width="8.5" height="36.0" rx="3" fill="#E2E8F0" stroke="#64748B" stroke-width="1.2"/>
<rect x="748.5" y="170.0" width="8.5" height="36.0" rx="3" fill="#E2E8F0" stroke="#64748B" stroke-width="1.2"/>
<rect x="758.0" y="170.0" width="141.5" height="36.0" rx="3" fill="#EDE9FE" stroke="#7C3AED" stroke-width="1.2"/>
<text x="829.2" y="193.0" font-size="11" fill="#4C1D95" font-weight="700" text-anchor="middle" font-family="Segoe UI, Helvetica, Arial, sans-serif">MMUL</text>
<rect x="900.5" y="170.0" width="8.5" height="36.0" rx="3" fill="#E2E8F0" stroke="#64748B" stroke-width="1.2"/>
<rect x="910.0" y="170.0" width="8.5" height="36.0" rx="3" fill="#E2E8F0" stroke="#64748B" stroke-width="1.2"/>
<rect x="919.5" y="170.0" width="75.0" height="36.0" rx="3" fill="#D1FAE5" stroke="#059669" stroke-width="1.2"/>
<text x="957.5" y="193.0" font-size="11" fill="#065F46" font-weight="700" text-anchor="middle" font-family="Segoe UI, Helvetica, Arial, sans-serif">ACT</text>
<rect x="995.5" y="170.0" width="8.5" height="36.0" rx="3" fill="#E2E8F0" stroke="#64748B" stroke-width="1.2"/>
<rect x="1005.0" y="170.0" width="8.5" height="36.0" rx="3" fill="#E2E8F0" stroke="#64748B" stroke-width="1.2"/>
<rect x="1014.5" y="170.0" width="8.5" height="36.0" rx="3" fill="#FEE2E2" stroke="#DC2626" stroke-width="1.2"/>
<text x="136.0" y="248.0" font-size="12" fill="#C026D3" font-weight="600" text-anchor="end" font-family="Segoe UI, Helvetica, Arial, sans-serif">results</text>
<rect x="292.5" y="232.0" width="8.5" height="24.0" rx="2" fill="#C026D3" stroke="none" stroke-width="0"/>
<rect x="302.0" y="232.0" width="8.5" height="24.0" rx="2" fill="#C026D3" stroke="none" stroke-width="0"/>
<rect x="311.5" y="232.0" width="8.5" height="24.0" rx="2" fill="#C026D3" stroke="none" stroke-width="0"/>
<rect x="321.0" y="232.0" width="8.5" height="24.0" rx="2" fill="#C026D3" stroke="none" stroke-width="0"/>
<rect x="330.5" y="232.0" width="8.5" height="24.0" rx="2" fill="#C026D3" stroke="none" stroke-width="0"/>
<rect x="340.0" y="232.0" width="8.5" height="24.0" rx="2" fill="#C026D3" stroke="none" stroke-width="0"/>
<rect x="349.5" y="232.0" width="8.5" height="24.0" rx="2" fill="#C026D3" stroke="none" stroke-width="0"/>
<rect x="359.0" y="232.0" width="8.5" height="24.0" rx="2" fill="#C026D3" stroke="none" stroke-width="0"/>
<rect x="511.0" y="232.0" width="8.5" height="24.0" rx="2" fill="#C026D3" stroke="none" stroke-width="0"/>
<rect x="520.5" y="232.0" width="8.5" height="24.0" rx="2" fill="#C026D3" stroke="none" stroke-width="0"/>
<rect x="530.0" y="232.0" width="8.5" height="24.0" rx="2" fill="#C026D3" stroke="none" stroke-width="0"/>
<rect x="539.5" y="232.0" width="8.5" height="24.0" rx="2" fill="#C026D3" stroke="none" stroke-width="0"/>
<rect x="549.0" y="232.0" width="8.5" height="24.0" rx="2" fill="#C026D3" stroke="none" stroke-width="0"/>
<rect x="558.5" y="232.0" width="8.5" height="24.0" rx="2" fill="#C026D3" stroke="none" stroke-width="0"/>
<rect x="568.0" y="232.0" width="8.5" height="24.0" rx="2" fill="#C026D3" stroke="none" stroke-width="0"/>
<rect x="577.5" y="232.0" width="8.5" height="24.0" rx="2" fill="#C026D3" stroke="none" stroke-width="0"/>
<rect x="824.5" y="232.0" width="8.5" height="24.0" rx="2" fill="#C026D3" stroke="none" stroke-width="0"/>
<rect x="834.0" y="232.0" width="8.5" height="24.0" rx="2" fill="#C026D3" stroke="none" stroke-width="0"/>
<rect x="843.5" y="232.0" width="8.5" height="24.0" rx="2" fill="#C026D3" stroke="none" stroke-width="0"/>
<rect x="853.0" y="232.0" width="8.5" height="24.0" rx="2" fill="#C026D3" stroke="none" stroke-width="0"/>
<rect x="862.5" y="232.0" width="8.5" height="24.0" rx="2" fill="#C026D3" stroke="none" stroke-width="0"/>
<rect x="872.0" y="232.0" width="8.5" height="24.0" rx="2" fill="#C026D3" stroke="none" stroke-width="0"/>
<rect x="881.5" y="232.0" width="8.5" height="24.0" rx="2" fill="#C026D3" stroke="none" stroke-width="0"/>
<rect x="891.0" y="232.0" width="8.5" height="24.0" rx="2" fill="#C026D3" stroke="none" stroke-width="0"/>
<line x1="1024.0" y1="160.0" x2="1024.0" y2="270.0" stroke="#DC2626" stroke-width="2" stroke-dasharray="4 3"/>
<text x="136.0" y="362.0" font-size="15" fill="#1E293B" font-weight="700" text-anchor="end" font-family="Segoe UI, Helvetica, Arial, sans-serif">v2 pipelined</text>
<text x="136.0" y="382.0" font-size="13" fill="#7C3AED" font-weight="700" text-anchor="end" font-family="Segoe UI, Helvetica, Arial, sans-serif">77 cycles</text>
<rect x="150.0" y="340.0" width="8.5" height="36.0" rx="3" fill="#E2E8F0" stroke="#64748B" stroke-width="1.2"/>
<rect x="159.5" y="340.0" width="8.5" height="36.0" rx="3" fill="#E2E8F0" stroke="#64748B" stroke-width="1.2"/>
<rect x="169.0" y="340.0" width="37.0" height="36.0" rx="3" fill="#FEF3C7" stroke="#D97706" stroke-width="1.2"/>
<text x="188.0" y="363.0" font-size="11" fill="#92400E" font-weight="700" text-anchor="middle" font-family="Segoe UI, Helvetica, Arial, sans-serif">LDW</text>
<rect x="207.0" y="340.0" width="8.5" height="36.0" rx="3" fill="#E2E8F0" stroke="#64748B" stroke-width="1.2"/>
<rect x="216.5" y="340.0" width="8.5" height="36.0" rx="3" fill="#E2E8F0" stroke="#64748B" stroke-width="1.2"/>
<rect x="226.0" y="340.0" width="75.0" height="36.0" rx="3" fill="#EDE9FE" stroke="#7C3AED" stroke-width="1.2"/>
<text x="264.0" y="363.0" font-size="11" fill="#4C1D95" font-weight="700" text-anchor="middle" font-family="Segoe UI, Helvetica, Arial, sans-serif">MMUL</text>
<rect x="302.0" y="340.0" width="8.5" height="36.0" rx="3" fill="#E2E8F0" stroke="#64748B" stroke-width="1.2"/>
<rect x="311.5" y="340.0" width="8.5" height="36.0" rx="3" fill="#E2E8F0" stroke="#64748B" stroke-width="1.2"/>
<rect x="321.0" y="340.0" width="37.0" height="36.0" rx="3" fill="#FEF3C7" stroke="#D97706" stroke-width="1.2"/>
<text x="340.0" y="363.0" font-size="11" fill="#92400E" font-weight="700" text-anchor="middle" font-family="Segoe UI, Helvetica, Arial, sans-serif">LDW</text>
<rect x="359.0" y="340.0" width="8.5" height="36.0" rx="3" fill="#E2E8F0" stroke="#64748B" stroke-width="1.2"/>
<rect x="368.5" y="340.0" width="8.5" height="36.0" rx="3" fill="#E2E8F0" stroke="#64748B" stroke-width="1.2"/>
<rect x="378.0" y="340.0" width="75.0" height="36.0" rx="3" fill="#EDE9FE" stroke="#7C3AED" stroke-width="1.2"/>
<text x="416.0" y="363.0" font-size="11" fill="#4C1D95" font-weight="700" text-anchor="middle" font-family="Segoe UI, Helvetica, Arial, sans-serif">MMUL</text>
<rect x="454.0" y="340.0" width="8.5" height="36.0" rx="3" fill="#E2E8F0" stroke="#64748B" stroke-width="1.2"/>
<rect x="463.5" y="340.0" width="8.5" height="36.0" rx="3" fill="#E2E8F0" stroke="#64748B" stroke-width="1.2"/>
<rect x="473.0" y="340.0" width="37.0" height="36.0" rx="3" fill="#FEF3C7" stroke="#D97706" stroke-width="1.2"/>
<text x="492.0" y="363.0" font-size="11" fill="#92400E" font-weight="700" text-anchor="middle" font-family="Segoe UI, Helvetica, Arial, sans-serif">LDW</text>
<rect x="511.0" y="340.0" width="8.5" height="36.0" rx="3" fill="#E2E8F0" stroke="#64748B" stroke-width="1.2"/>
<rect x="520.5" y="340.0" width="8.5" height="36.0" rx="3" fill="#E2E8F0" stroke="#64748B" stroke-width="1.2"/>
<rect x="530.0" y="340.0" width="75.0" height="36.0" rx="3" fill="#D1FAE5" stroke="#059669" stroke-width="1.2"/>
<text x="568.0" y="363.0" font-size="11" fill="#065F46" font-weight="700" text-anchor="middle" font-family="Segoe UI, Helvetica, Arial, sans-serif">ACT</text>
<rect x="606.0" y="340.0" width="8.5" height="36.0" rx="3" fill="#E2E8F0" stroke="#64748B" stroke-width="1.2"/>
<rect x="615.5" y="340.0" width="8.5" height="36.0" rx="3" fill="#E2E8F0" stroke="#64748B" stroke-width="1.2"/>
<rect x="625.0" y="340.0" width="75.0" height="36.0" rx="3" fill="#EDE9FE" stroke="#7C3AED" stroke-width="1.2"/>
<text x="663.0" y="363.0" font-size="11" fill="#4C1D95" font-weight="700" text-anchor="middle" font-family="Segoe UI, Helvetica, Arial, sans-serif">MMUL</text>
<rect x="701.0" y="340.0" width="8.5" height="36.0" rx="3" fill="#E2E8F0" stroke="#64748B" stroke-width="1.2"/>
<rect x="710.5" y="340.0" width="65.5" height="36.0" rx="3" fill="#E2E8F0" stroke="#64748B" stroke-width="1.2"/>
<rect x="777.0" y="340.0" width="75.0" height="36.0" rx="3" fill="#D1FAE5" stroke="#059669" stroke-width="1.2"/>
<text x="815.0" y="363.0" font-size="11" fill="#065F46" font-weight="700" text-anchor="middle" font-family="Segoe UI, Helvetica, Arial, sans-serif">ACT</text>
<rect x="853.0" y="340.0" width="8.5" height="36.0" rx="3" fill="#E2E8F0" stroke="#64748B" stroke-width="1.2"/>
<rect x="862.5" y="340.0" width="8.5" height="36.0" rx="3" fill="#E2E8F0" stroke="#64748B" stroke-width="1.2"/>
<rect x="872.0" y="340.0" width="8.5" height="36.0" rx="3" fill="#FEE2E2" stroke="#DC2626" stroke-width="1.2"/>
<text x="136.0" y="418.0" font-size="12" fill="#C026D3" font-weight="600" text-anchor="end" font-family="Segoe UI, Helvetica, Arial, sans-serif">results</text>
<rect x="292.5" y="402.0" width="8.5" height="24.0" rx="2" fill="#C026D3" stroke="none" stroke-width="0"/>
<rect x="302.0" y="402.0" width="8.5" height="24.0" rx="2" fill="#C026D3" stroke="none" stroke-width="0"/>
<rect x="311.5" y="402.0" width="8.5" height="24.0" rx="2" fill="#C026D3" stroke="none" stroke-width="0"/>
<rect x="321.0" y="402.0" width="8.5" height="24.0" rx="2" fill="#C026D3" stroke="none" stroke-width="0"/>
<rect x="330.5" y="402.0" width="8.5" height="24.0" rx="2" fill="#C026D3" stroke="none" stroke-width="0"/>
<rect x="340.0" y="402.0" width="8.5" height="24.0" rx="2" fill="#C026D3" stroke="none" stroke-width="0"/>
<rect x="349.5" y="402.0" width="8.5" height="24.0" rx="2" fill="#C026D3" stroke="none" stroke-width="0"/>
<rect x="359.0" y="402.0" width="8.5" height="24.0" rx="2" fill="#C026D3" stroke="none" stroke-width="0"/>
<rect x="444.5" y="402.0" width="8.5" height="24.0" rx="2" fill="#C026D3" stroke="none" stroke-width="0"/>
<rect x="454.0" y="402.0" width="8.5" height="24.0" rx="2" fill="#C026D3" stroke="none" stroke-width="0"/>
<rect x="463.5" y="402.0" width="8.5" height="24.0" rx="2" fill="#C026D3" stroke="none" stroke-width="0"/>
<rect x="473.0" y="402.0" width="8.5" height="24.0" rx="2" fill="#C026D3" stroke="none" stroke-width="0"/>
<rect x="482.5" y="402.0" width="8.5" height="24.0" rx="2" fill="#C026D3" stroke="none" stroke-width="0"/>
<rect x="492.0" y="402.0" width="8.5" height="24.0" rx="2" fill="#C026D3" stroke="none" stroke-width="0"/>
<rect x="501.5" y="402.0" width="8.5" height="24.0" rx="2" fill="#C026D3" stroke="none" stroke-width="0"/>
<rect x="511.0" y="402.0" width="8.5" height="24.0" rx="2" fill="#C026D3" stroke="none" stroke-width="0"/>
<rect x="691.5" y="402.0" width="8.5" height="24.0" rx="2" fill="#C026D3" stroke="none" stroke-width="0"/>
<rect x="701.0" y="402.0" width="8.5" height="24.0" rx="2" fill="#C026D3" stroke="none" stroke-width="0"/>
<rect x="710.5" y="402.0" width="8.5" height="24.0" rx="2" fill="#C026D3" stroke="none" stroke-width="0"/>
<rect x="720.0" y="402.0" width="8.5" height="24.0" rx="2" fill="#C026D3" stroke="none" stroke-width="0"/>
<rect x="729.5" y="402.0" width="8.5" height="24.0" rx="2" fill="#C026D3" stroke="none" stroke-width="0"/>
<rect x="739.0" y="402.0" width="8.5" height="24.0" rx="2" fill="#C026D3" stroke="none" stroke-width="0"/>
<rect x="748.5" y="402.0" width="8.5" height="24.0" rx="2" fill="#C026D3" stroke="none" stroke-width="0"/>
<rect x="758.0" y="402.0" width="8.5" height="24.0" rx="2" fill="#C026D3" stroke="none" stroke-width="0"/>
<line x1="881.5" y1="330.0" x2="881.5" y2="440.0" stroke="#DC2626" stroke-width="2" stroke-dasharray="4 3"/>
<text x="150.0" y="520.0" font-size="11" fill="#475569" font-weight="400" text-anchor="middle" font-family="Segoe UI, Helvetica, Arial, sans-serif">0</text>
<text x="245.0" y="520.0" font-size="11" fill="#475569" font-weight="400" text-anchor="middle" font-family="Segoe UI, Helvetica, Arial, sans-serif">10</text>
<text x="340.0" y="520.0" font-size="11" fill="#475569" font-weight="400" text-anchor="middle" font-family="Segoe UI, Helvetica, Arial, sans-serif">20</text>
<text x="435.0" y="520.0" font-size="11" fill="#475569" font-weight="400" text-anchor="middle" font-family="Segoe UI, Helvetica, Arial, sans-serif">30</text>
<text x="530.0" y="520.0" font-size="11" fill="#475569" font-weight="400" text-anchor="middle" font-family="Segoe UI, Helvetica, Arial, sans-serif">40</text>
<text x="625.0" y="520.0" font-size="11" fill="#475569" font-weight="400" text-anchor="middle" font-family="Segoe UI, Helvetica, Arial, sans-serif">50</text>
<text x="720.0" y="520.0" font-size="11" fill="#475569" font-weight="400" text-anchor="middle" font-family="Segoe UI, Helvetica, Arial, sans-serif">60</text>
<text x="815.0" y="520.0" font-size="11" fill="#475569" font-weight="400" text-anchor="middle" font-family="Segoe UI, Helvetica, Arial, sans-serif">70</text>
<text x="910.0" y="520.0" font-size="11" fill="#475569" font-weight="400" text-anchor="middle" font-family="Segoe UI, Helvetica, Arial, sans-serif">80</text>
<text x="1005.0" y="520.0" font-size="11" fill="#475569" font-weight="400" text-anchor="middle" font-family="Segoe UI, Helvetica, Arial, sans-serif">90</text>
<text x="150.0" y="545.0" font-size="12" fill="#475569" font-weight="400" text-anchor="start" font-family="Segoe UI, Helvetica, Arial, sans-serif">clock cycle</text>
<rect x="873.0" y="70.0" width="170.0" height="102.0" rx="8" fill="#FFFFFF" stroke="#CBD5E1" stroke-width="1"/>
<line x1="887.0" y1="88.0" x2="913.0" y2="88.0" stroke="#D97706" stroke-width="4"/>
<text x="923.0" y="92.0" font-size="12" fill="#475569" font-weight="400" text-anchor="start" font-family="Segoe UI, Helvetica, Arial, sans-serif">LDW</text>
<line x1="887.0" y1="110.0" x2="913.0" y2="110.0" stroke="#7C3AED" stroke-width="4"/>
<text x="923.0" y="114.0" font-size="12" fill="#475569" font-weight="400" text-anchor="start" font-family="Segoe UI, Helvetica, Arial, sans-serif">MMUL</text>
<line x1="887.0" y1="132.0" x2="913.0" y2="132.0" stroke="#059669" stroke-width="4"/>
<text x="923.0" y="136.0" font-size="12" fill="#475569" font-weight="400" text-anchor="start" font-family="Segoe UI, Helvetica, Arial, sans-serif">ACT</text>
<line x1="887.0" y1="154.0" x2="913.0" y2="154.0" stroke="#C026D3" stroke-width="4"/>
<text x="923.0" y="158.0" font-size="12" fill="#475569" font-weight="400" text-anchor="start" font-family="Segoe UI, Helvetica, Arial, sans-serif">result written</text>
</svg>
